<svg xmlns="http://www.w3.org/2000/svg" width="256" height="78" viewBox="0 0 256 78" aria-hidden="true">
  <title>Amazon</title>
  <g fill="none" fill-rule="evenodd">
    <path fill="#FFFFFF" d="M55.2 20.4c0-3-2.6-5.4-5.7-5.4-2.4 0-4.2 1.2-5.1 2.6h-.1v-2.1H37v25h7.5V28.7c0-4.1 2.7-5.5 4.3-5.5 1.7 0 3.4 1.1 3.4 4.2v13.1H60V26.8c0-4.9-2.1-6.4-4.8-6.4zm22.1 5.9c-3 0-5.1 1.3-6.2 3.1h-.1v-2.6h-7.2l.1 1.4c.1 1.4.1 3 .1 4.9v16.1H71V41c0-1 .1-2 .4-2.8.6-2 2.2-4.1 5-4.1 3.3 0 4.7 2.6 4.7 6.3v12.2h7.6V39.2c0-7.7-4.2-12.9-11.4-12.9zM99.1 26.5h-7.6v22.2h7.6V26.5zm-3.8-14.3c-2.5 0-4.6 2-4.6 4.4 0 2.5 2.1 4.5 4.6 4.5 2.5 0 4.6-2 4.6-4.5 0-2.4-2.1-4.4-4.6-4.4zM130.6 26.5H123v2.6h-.1c-1.2-2-3.9-3.1-6.6-3.1-6.1 0-11.7 5.4-11.7 12.8 0 7.2 5.3 12.9 11.5 12.9 2.7 0 5.5-1.1 6.8-3.2h.1v2.3c0 5.5-3 7.9-7.8 7.9-3.3 0-5.8-.9-7.6-1.8l-1.5 5.8c2.1 1 6 2.2 10.4 2.2 4.1 0 7.5-.9 10.1-3.1 3-2.4 4.5-6.1 4.5-11.5V26.5zM116.5 45c-3.2 0-5.8-2.7-5.8-6.3 0-3.7 2.6-6.4 5.8-6.4 3.2 0 5.8 2.7 5.8 6.4 0 3.6-2.6 6.3-5.8 6.3zM167.2 20.4c0-3-2.6-5.4-5.7-5.4-2.4 0-4.2 1.2-5.1 2.6h-.1v-2.1h-7.3v25h7.5V28.7c0-4.1 2.7-5.5 4.3-5.5 1.7 0 3.4 1.1 3.4 4.2v13.1h7.6V26.8c0-4.9-2.1-6.4-4.6-6.4zM191.2 25.9c-7.2 0-12.7 5.2-12.7 12.8 0 7.5 5.3 12.9 13.2 12.9 4.6 0 7.9-1.6 10.5-4.1l-4.5-4.6c-2 1.9-3.9 2.9-6.1 2.9-3.3 0-5.6-1.8-6.3-4.9h17.3c.1-.8.1-1.6.1-2.4 0-7.7-4.3-12.6-11.5-12.6zm-6.1 10.2c.5-2.8 2.2-4.4 4.5-4.4 2.3 0 4 1.7 4.1 4.4h-8.6zM210.2 26.5h-7.6v22.2h7.6V26.5zm-3.8-14.3c-2.5 0-4.6 2-4.6 4.4 0 2.5 2.1 4.5 4.6 4.5 2.5 0 4.6-2 4.6-4.5 0-2.4-2.1-4.4-4.6-4.4z"/>
    <path fill="#FF9900" d="M238.5 63.2c-18.6 13.7-45.9 11.2-62.1-5-1.4-1.4.7-3.5 2.2-2.2 16 15.3 41.2 17.7 58.7 4.6 1.7-1.2 3.6 1.4 1.2 2.6zM244.4 55.5c-1.7 2.2-4.9 4.6-7.1 5.8-2.1 1.1-3.9-.6-1.7-2.4 1.6-1.3 3.6-3.3 4.5-4.6 1.3-1.9 2.6-.6 4.3 1.2z"/>
  </g>
</svg>

