<svg xmlns="http://www.w3.org/2000/svg" xmlns:xlink="http://www.w3.org/1999/xlink" width="133" height="133" viewBox="0 0 133 133"><defs><clipPath id="clip-fun"><rect width="133" height="133"></rect></clipPath></defs><g id="fun" clip-path="url(#clip-fun)"><g id="Group_7" data-name="Group 7" transform="translate(-36.015 -151.828) rotate(-8)"><path id="Path_144" data-name="Path 144" d="M54.4,314.9c.678-3.089,3.17-6.518,6.575-6.687-.206-.493-.416-.985-.621-1.479q-2.9-6.976-5.414-14.106c-1.675-4.758-3.3-9.562-4.563-14.449-.367-1.421-.675-2.849-.939-4.284a24.665,24.665,0,0,0-7.74,14.743,41.715,41.715,0,0,0,.961,16.764A47.9,47.9,0,0,0,49,319.9c.74,1.132,1.524,2.236,2.362,3.3a14.747,14.747,0,0,0,2.686,2.826,5.237,5.237,0,0,0,1.44.779,17.293,17.293,0,0,1-1.21-5.4A20.162,20.162,0,0,1,54.4,314.9Z" transform="translate(-1.158 -48.317)" fill="#ff3131"></path><path id="Path_145" data-name="Path 145" d="M94.237,288.025a2.108,2.108,0,1,0-2.109,2.108A2.111,2.111,0,0,0,94.237,288.025Z" transform="translate(-22.957 -53.69)" fill="#82bce1"></path><path id="Path_146" data-name="Path 146" d="M94.907,304.105a2.108,2.108,0,1,0,2.108,2.109A2.11,2.11,0,0,0,94.907,304.105Z" transform="translate(-24.198 -61.818)" fill="#82bce1"></path><path id="Path_147" data-name="Path 147" d="M103.346,362.1a4.99,4.99,0,0,1,.7,4.135c-.258,1-1.179,2.238-2.26,2.077a28.453,28.453,0,0,1-.153,4.493c-.126.932-.243,3-1.725,2.526a2.138,2.138,0,0,1-1.143-1.362c-.311-.711-.591-1.436-.831-2.174a19.012,19.012,0,0,1-.951-4.191,2.125,2.125,0,0,1-1.313.243,1.6,1.6,0,0,1-1.1-.887,6.6,6.6,0,0,1-.3-3.845,8,8,0,0,1-.853-.135.4.4,0,0,1-.016.05,14.015,14.015,0,0,0-1.224,5.4,15.176,15.176,0,0,0,.127,2.68,1.532,1.532,0,0,0,.134.56c.142.2.09.156.329-.011a10.877,10.877,0,0,0,1.356-1.071.446.446,0,0,1,.737.194,45.256,45.256,0,0,0,2.059,5.311c.381.815.788,1.615,1.228,2.4a10.955,10.955,0,0,0,1.387,2.158c.636.68,1.262.673,1.749-.141a10.174,10.174,0,0,0,.966-2.472,14.64,14.64,0,0,0,.449-5.614c-.067-.575.628-.8,1.048-.6a2.288,2.288,0,0,0,2.962-1.354,6.557,6.557,0,0,0,.54-3.45,9.323,9.323,0,0,0-3-5.536A4.092,4.092,0,0,1,103.346,362.1Z" transform="translate(-23.918 -87.455)" fill="#ff931d"></path><path id="Path_148" data-name="Path 148" d="M66.438,344.158a20.2,20.2,0,0,0-.027,5.784,14.538,14.538,0,0,0,1.351,5.513,1.827,1.827,0,0,0,.28-.058c1.211-.381.811-2.432.757-3.386-.154-2.72-.5-5.558.737-8.1a5.622,5.622,0,0,1,4.314-3.181c-.444-.991-.872-1.988-1.3-2.988C69.173,338.078,67.024,340.968,66.438,344.158Z" transform="translate(-12.319 -76.85)" fill="#e2122c"></path><path id="Path_149" data-name="Path 149" d="M86.732,209.665a8.741,8.741,0,0,1-3.368,2.944q-.509.286-1.033.54a24.857,24.857,0,0,1-3.791,1.493A53.589,53.589,0,0,1,68.028,216.5,27.042,27.042,0,0,1,57.7,215.75a4.474,4.474,0,0,1-2.335-1.3,3.6,3.6,0,0,1-.689-2.4c.048-1.2.535-3.288,1.71-4.03-.01.127-.027.254-.037.381a.592.592,0,0,0,.254.583.626.626,0,0,0,.36.678,15.248,15.248,0,0,0,6.72,1.218,49.276,49.276,0,0,0,7.7-.334,31.8,31.8,0,0,0,9.055-2.463,21.131,21.131,0,0,0,3.961-2.309.78.78,0,0,0,.313-.545.66.66,0,0,0,.2-.694c-.043-.164-.09-.329-.132-.492a3.56,3.56,0,0,1,2.393,1.943A4.341,4.341,0,0,1,86.732,209.665Z" transform="translate(-7.162 -17.104)" fill="#ff3131"></path><path id="Path_150" data-name="Path 150" d="M103.821,368.072c1.215.688,1.709-1.221,1.727-2.046a5.05,5.05,0,0,0-.861-2.764,17.252,17.252,0,0,1-3.808.571,28.891,28.891,0,0,1-3.517.14,7.761,7.761,0,0,0,0,2.823,1.511,1.511,0,0,0,.485.955c.474.327,1.147-.018,1.557-.3a.4.4,0,0,1,.584.237,24.138,24.138,0,0,0,1.922,7.051c.142.271.428.862.848.477.155-.143.175-.688.209-.879q.157-.9.235-1.8a16.547,16.547,0,0,0-.027-3.97A.443.443,0,0,1,103.821,368.072Z" transform="translate(-26.18 -88.253)" fill="#ffbd1a"></path><path id="Path_151" data-name="Path 151" d="M103.958,357.77a2.541,2.541,0,0,1-1.631,1.563,7.793,7.793,0,0,1-1.324.328H101c-.752.132-1.531.18-2.272.238a33.193,33.193,0,0,1-3.77.09c-.863-.026-2.293-.17-2.537-1.16a53.141,53.141,0,0,0,6.683-.3c.762-.085,1.515-.18,2.272-.3.408-.058.821-.127,1.229-.2S103.492,357.887,103.958,357.77Z" transform="translate(-24.029 -85.798)" fill="#ff3131"></path><path id="Path_152" data-name="Path 152" d="M130.575,336.987c-1.5-2.794-4.411-5.175-7.743-4.526q-.239,1.074-.492,2.148a6.052,6.052,0,0,1,5.312,2.176c1.887,2.169,2.242,5.174,2.388,7.935.053,1.012,0,2.836,1.234,3.222a1.364,1.364,0,0,0,.9-.055.431.431,0,0,1-.085-.331A17.484,17.484,0,0,0,130.575,336.987Z" transform="translate(-37.399 -74.441)" fill="#e2122c"></path><path id="Path_153" data-name="Path 153" d="M130.881,268.59a15.76,15.76,0,0,0-5.028-4.427,117.127,117.127,0,0,1,.2,19.533,126.632,126.632,0,0,1-2.026,15.458c-.11.565-.231,1.128-.351,1.691,3.433-.411,6.466,1.888,8.115,4.82a16.156,16.156,0,0,1,1.772,11.282,8.406,8.406,0,0,0,1.348-1.446,20.8,20.8,0,0,0,2.981-6.97,52.345,52.345,0,0,0,2.207-17.316,36.238,36.238,0,0,0-4.346-15.688A49,49,0,0,0,130.881,268.59Z" transform="translate(-37.995 -43.969)" fill="#ff3131"></path><path id="Path_154" data-name="Path 154" d="M91.906,249.828a9,9,0,0,1-7,8.763,8.78,8.78,0,0,1-1.986.222,9.006,9.006,0,0,1-1.006-.058,8.4,8.4,0,0,1-1.6-.328,8.986,8.986,0,0,1,.62-17.364,8.961,8.961,0,0,1,5.19.371,8.676,8.676,0,0,1,1.477.725,9.013,9.013,0,0,1,4.305,7.668Z" transform="translate(-15.768 -33.548)" fill="#82bce1"></path><path id="Path_155" data-name="Path 155" d="M86,188.713A27.085,27.085,0,0,1,82.4,190.72a29.253,29.253,0,0,1-8.468,2.426,47.179,47.179,0,0,1-7.186.344c-2.118-.043-4.432-.016-6.376-.98,0-.011,0-.021,0-.032A46.154,46.154,0,0,1,65.695,174.5c.424-.778.879-1.541,1.356-2.282a24.8,24.8,0,0,1,1.472-2.076c.238-.3.487-.588.736-.868.18-.2.545-.784.816-.858.212-.058.98.508,1.175.62.323.18.636.371.948.572a22.758,22.758,0,0,1,2.176,1.578,34.821,34.821,0,0,1,6.609,7.361,41.119,41.119,0,0,1,2.87,4.92C84.7,185.176,85.315,186.944,86,188.713Z" transform="translate(-9.706 -1.182)" fill="#ffe815"></path><path id="Path_156" data-name="Path 156" d="M94.717,246.286c-.694-9.548-2.722-19.117-7.117-27.674a13.011,13.011,0,0,1-2.78,1.938c-.334.18-.678.355-1.022.519a26.368,26.368,0,0,1-4.713,1.747,58.364,58.364,0,0,1-6.328,1.208,52.922,52.922,0,0,1-6.2.62,27.781,27.781,0,0,1-6.254-.455,17.733,17.733,0,0,1-2.579-.662,138.182,138.182,0,0,0-.815,16.411,61.7,61.7,0,0,0,2.383,14.991c1.34,4.776,2.939,9.49,4.618,14.155q2.518,7.022,5.422,13.895c.673,1.584,1.34,3.167,2.054,4.724a.635.635,0,0,1,.313.667c.18.387.36.773.551,1.155a38.565,38.565,0,0,0,3.468,5.65,1,1,0,0,1,.18-.016,54.231,54.231,0,0,0,6.815-.233q1.6-.159,3.177-.424c.111-.016.217-.032.323-.053.471-.085.943-.175,1.408-.291s.922-.345,1.388-.456a.6.6,0,0,1-.043-.376c.646-2.8,1.615-5.529,2.319-8.319s1.3-5.613,1.811-8.446A122.354,122.354,0,0,0,94.717,246.286Zm-21.1,11.66a3.7,3.7,0,1,1,3.7,3.7A3.7,3.7,0,0,1,73.619,257.947Zm5.237,13.763a3.7,3.7,0,1,1,3.7-3.7A3.7,3.7,0,0,1,78.856,271.709ZM75.3,250.469a10.575,10.575,0,1,1,10.575-10.574A10.588,10.588,0,0,1,75.3,250.469Z" transform="translate(-8.147 -23.615)" fill="#ffe815"></path><path id="Path_157" data-name="Path 157" d="M94.338,224.081a16.82,16.82,0,0,0-6.66-5.573,88.122,88.122,0,0,0-1.484-8.875A63.841,63.841,0,0,0,80.6,193.987a.75.75,0,0,0-.111-.159c.084-.114.169-.225.246-.344a5.791,5.791,0,0,0,.669-5.079,5.1,5.1,0,0,0-4.314-3.075c-.4-1.084-.889-2.145-1.376-3.173a40.727,40.727,0,0,0-2.725-4.872,36.5,36.5,0,0,0-7.279-8.325,23.052,23.052,0,0,0-4.4-2.9,1.573,1.573,0,0,0-2.025.159,17.281,17.281,0,0,0-1.91,2.207,38.823,38.823,0,0,0-5.307,10.049,48.6,48.6,0,0,0-2.657,10.8l-.021,0c-1.728.375-2.562,2.188-3.02,3.726a5.775,5.775,0,0,0,.663,5.252,4.383,4.383,0,0,0,1.119.989c-.472,5.165-.941,10.341-.9,15.532A62.639,62.639,0,0,0,48,223.943a.781.781,0,0,0-.244.135c-9.058,7.386-10.345,20.225-8.22,31A49.182,49.182,0,0,0,45.5,270.627a42.656,42.656,0,0,0,4.768,6.643c1.429,1.6,3.761,3.518,6.072,2.627,1.435-.553,1.673-1.969,1.671-3.348,0-1.751-.265-3.491-.224-5.242a7.465,7.465,0,0,1,1.271-4.426,3.866,3.866,0,0,1,3.139-1.556c.092.2.181.4.275.6a24.405,24.405,0,0,0,4.161,6.606.588.588,0,0,0,.246.155c0,.009,0,.016,0,.025a2.458,2.458,0,0,0,1.26,2.3,15.3,15.3,0,0,0-1.308,7.366c.081.954.16,2.348,1.065,2.919s1.682-.333,2.354-1.016a25.592,25.592,0,0,0,1.855,5.7,29.2,29.2,0,0,0,1.656,3.1A4.355,4.355,0,0,0,75.658,295c2.161.861,3.117-1.737,3.628-3.3a19.008,19.008,0,0,0,.9-5.9,3.8,3.8,0,0,0,2.854-1.3,6.274,6.274,0,0,0,1.27-4.145c-.017-2.683-.985-5.707-3.179-7.375a2.027,2.027,0,0,0,.149-1.529,2.567,2.567,0,0,0,.418-.307.566.566,0,0,0,.138-.7.55.55,0,0,0,.184-.233,53.187,53.187,0,0,0,2.291-7.465c.094-.36.173-.724.264-1.084a5.08,5.08,0,0,1,5.357,2.8,10.839,10.839,0,0,1,1.075,3.817,31.464,31.464,0,0,0,.4,4.227,3.214,3.214,0,0,0,2.26,2.452c1.337.282,2.559-.584,3.465-1.467a15.7,15.7,0,0,0,3.584-6.58c3.637-11.2,4.406-23.863-.926-34.667A46.485,46.485,0,0,0,94.338,224.081ZM50.667,191.3a45.284,45.284,0,0,1,6.678-20.262,24.564,24.564,0,0,1,1.474-2.074q.356-.445.734-.87c.18-.2.546-.784.818-.857.212-.057.977.507,1.175.62q.481.274.947.571A22.727,22.727,0,0,1,64.668,170a34.851,34.851,0,0,1,6.608,7.362,40.923,40.923,0,0,1,2.87,4.918c.843,1.708,1.461,3.48,2.153,5.246a28.455,28.455,0,0,1-12.078,4.432,47.005,47.005,0,0,1-7.181.347c-2.12-.044-4.435-.016-6.379-.979C50.662,191.318,50.666,191.308,50.667,191.3Zm-3.151,3.651c.045-1.2.534-3.29,1.711-4.032-.012.127-.029.254-.04.382a.6.6,0,0,0,.255.585.629.629,0,0,0,.362.678c2.074,1.075,4.433,1.152,6.721,1.216a49.073,49.073,0,0,0,7.7-.335,27.78,27.78,0,0,0,13.018-4.772.754.754,0,0,0,.311-.546.648.648,0,0,0,.2-.691c-.04-.165-.086-.329-.133-.492a3.556,3.556,0,0,1,2.393,1.943,4.32,4.32,0,0,1-.442,3.68,8.774,8.774,0,0,1-3.366,2.945,24.264,24.264,0,0,1-4.828,2.031A53.387,53.387,0,0,1,60.864,199.4a27.05,27.05,0,0,1-10.326-.747,4.518,4.518,0,0,1-2.335-1.3A3.6,3.6,0,0,1,47.516,194.947Zm5.369,82.766a14.738,14.738,0,0,1-2.686-2.827c-.837-1.061-1.622-2.166-2.362-3.3A47.9,47.9,0,0,1,41.5,257.082a41.714,41.714,0,0,1-.961-16.764,24.666,24.666,0,0,1,7.74-14.743c.263,1.434.571,2.863.939,4.284,1.261,4.887,2.888,9.69,4.563,14.449s3.479,9.455,5.414,14.106c.205.494.415.986.621,1.479-3.405.169-5.9,3.6-6.575,6.687a20.162,20.162,0,0,0-.123,6.513,17.293,17.293,0,0,0,1.21,5.4A5.235,5.235,0,0,1,52.886,277.712Zm4.332-10.649c-1.24,2.54-.891,5.377-.737,8.1.054.954.454,3-.757,3.386a1.86,1.86,0,0,1-.28.058,14.539,14.539,0,0,1-1.351-5.513,20.2,20.2,0,0,1,.027-5.784c.586-3.189,2.735-6.079,6.117-6.413.424,1,.852,2,1.3,2.987A5.622,5.622,0,0,0,57.218,267.063Zm26.114,12.5a6.557,6.557,0,0,1-.54,3.45,2.288,2.288,0,0,1-2.962,1.354c-.42-.2-1.115.026-1.048.6a14.641,14.641,0,0,1-.449,5.614,10.177,10.177,0,0,1-.966,2.473c-.487.814-1.113.821-1.749.141a10.963,10.963,0,0,1-1.387-2.158c-.44-.784-.847-1.583-1.228-2.4a45.26,45.26,0,0,1-2.059-5.311.446.446,0,0,0-.737-.194,10.87,10.87,0,0,1-1.356,1.071c-.24.168-.187.21-.329.011a1.533,1.533,0,0,1-.134-.56,15.176,15.176,0,0,1-.127-2.68,14.014,14.014,0,0,1,1.224-5.4.4.4,0,0,0,.016-.05,8,8,0,0,0,.853.136,6.6,6.6,0,0,0,.3,3.845,1.6,1.6,0,0,0,1.1.887,2.124,2.124,0,0,0,1.313-.243,19.011,19.011,0,0,0,.951,4.191c.241.738.521,1.464.831,2.174a2.138,2.138,0,0,0,1.143,1.362c1.482.476,1.6-1.594,1.725-2.526a28.457,28.457,0,0,0,.153-4.493c1.08.161,2-1.079,2.26-2.076a4.99,4.99,0,0,0-.7-4.135,4.1,4.1,0,0,0,.9-.621A9.322,9.322,0,0,1,83.332,279.559ZM77,280.314a16.546,16.546,0,0,1,.027,3.97q-.078.905-.235,1.8c-.033.191-.053.736-.209.879-.42.385-.706-.206-.848-.477a24.14,24.14,0,0,1-1.922-7.051.4.4,0,0,0-.584-.237c-.41.281-1.083.626-1.557.3a1.51,1.51,0,0,1-.485-.955,7.76,7.76,0,0,1,0-2.823,28.927,28.927,0,0,0,3.517-.14,17.243,17.243,0,0,0,3.808-.571,5.05,5.05,0,0,1,.861,2.764c-.018.825-.512,2.734-1.727,2.046A.443.443,0,0,0,77,280.314Zm1.3-6.78a14.194,14.194,0,0,1-3.6.57,34.554,34.554,0,0,1-3.769.087c-.868-.028-2.3-.168-2.539-1.16a52.776,52.776,0,0,0,6.685-.3c1.172-.129,2.341-.292,3.5-.5.418-.074.888-.15,1.351-.263A2.531,2.531,0,0,1,78.3,273.533Zm4.837-12.143c-.7,2.791-1.672,5.522-2.319,8.321a.6.6,0,0,0,.042.374c-.466.115-.922.336-1.388.456s-.935.208-1.407.29q-1.742.3-3.5.477a53.3,53.3,0,0,1-6.815.235.811.811,0,0,0-.176.014,38.4,38.4,0,0,1-3.473-5.648c-.188-.382-.368-.769-.549-1.154a.637.637,0,0,0-.311-.665c-.714-1.561-1.385-3.145-2.053-4.724q-2.907-6.87-5.425-13.9c-1.675-4.667-3.276-9.378-4.618-14.153a61.778,61.778,0,0,1-2.38-14.992,137.639,137.639,0,0,1,.811-16.411,17.968,17.968,0,0,0,2.58.659,27.935,27.935,0,0,0,6.257.459,53.249,53.249,0,0,0,6.2-.621,57.593,57.593,0,0,0,6.325-1.208,26.642,26.642,0,0,0,5.739-2.266A13.122,13.122,0,0,0,79.455,195c4.394,8.56,6.422,18.128,7.115,27.674a122.245,122.245,0,0,1-1.62,30.274Q84.19,257.2,83.137,261.39ZM94.78,273.446a1.362,1.362,0,0,1-.9.055c-1.234-.386-1.181-2.21-1.234-3.222-.146-2.761-.5-5.765-2.388-7.935a6.051,6.051,0,0,0-5.312-2.176q.255-1.072.492-2.148c3.332-.649,6.243,1.732,7.743,4.526A17.483,17.483,0,0,1,94.7,273.114.431.431,0,0,0,94.78,273.446Zm5.114-8.885a20.8,20.8,0,0,1-2.981,6.97,8.41,8.41,0,0,1-1.348,1.446,16.156,16.156,0,0,0-1.772-11.282c-1.649-2.931-4.682-5.231-8.115-4.82.119-.563.241-1.126.351-1.691a126.619,126.619,0,0,0,2.026-15.458,117.127,117.127,0,0,0-.2-19.533,15.761,15.761,0,0,1,5.028,4.427,48.993,48.993,0,0,1,4.869,6.937,36.237,36.237,0,0,1,4.346,15.688A52.346,52.346,0,0,1,99.894,264.561Z" fill="#300404"></path><path id="Path_158" data-name="Path 158" d="M81.639,237.97a10.574,10.574,0,1,0,10.574,10.574A10.586,10.586,0,0,0,81.639,237.97Zm0,19.559a8.985,8.985,0,1,1,8.985-8.985A9,9,0,0,1,81.639,257.529Z" transform="translate(-14.486 -32.265)" fill="#300404"></path><path id="Path_159" data-name="Path 159" d="M94.542,286.741a3.7,3.7,0,1,0-3.7,3.7A3.7,3.7,0,0,0,94.542,286.741Zm-5.8,0a2.108,2.108,0,1,1,2.107,2.107A2.11,2.11,0,0,1,88.738,286.741Z" transform="translate(-21.674 -52.407)" fill="#300404"></path><path id="Path_160" data-name="Path 160" d="M93.624,301.233a3.7,3.7,0,1,0,3.7,3.7A3.7,3.7,0,0,0,93.624,301.233Zm0,5.805a2.108,2.108,0,1,1,2.108-2.108A2.11,2.11,0,0,1,93.624,307.038Z" transform="translate(-22.915 -60.534)" fill="#300404"></path><path id="Path_161" data-name="Path 161" d="M90.306,188.713A27.087,27.087,0,0,1,86.7,190.72c-3.829-9.188-7.694-14.886-9.039-16.405-2.425-2.738-5.6-1.3-7.663.185.424-.778.88-1.541,1.356-2.282a24.8,24.8,0,0,1,1.472-2.076c.238-.3.487-.588.736-.868.18-.2.545-.784.816-.858.212-.058.98.508,1.175.62.323.18.636.371.948.572a22.761,22.761,0,0,1,2.176,1.578,34.821,34.821,0,0,1,6.609,7.361,41.123,41.123,0,0,1,2.87,4.92C89,185.176,89.618,186.944,90.306,188.713Z" transform="translate(-14.01 -1.182)" fill="#edab06"></path><path id="Path_162" data-name="Path 162" d="M109.537,358.035c.418-.074.889-.148,1.356-.265a2.541,2.541,0,0,1-1.631,1.563,7.8,7.8,0,0,1-1.324.328c.127-.477.254-.953.371-1.424C108.716,358.178,109.129,358.109,109.537,358.035Z" transform="translate(-30.963 -85.798)" fill="#e2122c"></path><path id="Path_163" data-name="Path 163" d="M104.178,212.61q-.509.286-1.033.54c-.614-1.784-1.25-3.474-1.891-5.068a21.131,21.131,0,0,0,3.961-2.309.78.78,0,0,0,.313-.545.66.66,0,0,0,.2-.694c-.043-.164-.09-.329-.132-.492a3.56,3.56,0,0,1,2.393,1.943,4.341,4.341,0,0,1-.445,3.68A8.741,8.741,0,0,1,104.178,212.61Z" transform="translate(-27.977 -17.104)" fill="#e2122c"></path><path id="Path_164" data-name="Path 164" d="M114.843,276.56q-.762,4.25-1.811,8.446c-.7,2.791-1.673,5.523-2.319,8.319a.6.6,0,0,0,.043.376c-.466.111-.927.334-1.388.456s-.937.206-1.408.291c-.106.021-.212.037-.323.053,7.615-30.851,3.628-56.216-2.092-73.432.345-.164.689-.339,1.022-.519a13.011,13.011,0,0,0,2.78-1.938c4.4,8.558,6.423,18.127,7.117,27.674A122.354,122.354,0,0,1,114.843,276.56Z" transform="translate(-29.894 -23.615)" fill="#edab06"></path><path id="Path_165" data-name="Path 165" d="M87.766,241.435l-5.809,16.993a9.046,9.046,0,0,1-4.348-2.913l4.967-14.451a8.961,8.961,0,0,1,5.19.371Z" transform="translate(-17.411 -33.548)" fill="#aaebf0"></path><path id="Path_166" data-name="Path 166" d="M96.309,245.2l-4.957,14.461a8.781,8.781,0,0,1-1.986.222,9.006,9.006,0,0,1-1.006-.058l5.687-16.6A8.94,8.94,0,0,1,96.309,245.2Z" transform="translate(-22.215 -34.613)" fill="#aaebf0"></path><path id="Path_167" data-name="Path 167" d="M43.827,304.337a5.969,5.969,0,0,0,1.257,3.293c-.538-.58-.034-3.538.029-4.342a31.026,31.026,0,0,1,.683-4.481,38.453,38.453,0,0,1,3.275-8.437c.763-1.557.753-4.437-1.487-2.687-1.891,1.477-2.735,3.811-3.266,6.056A28.562,28.562,0,0,0,43.827,304.337Z" transform="translate(-2.189 -54.236)" fill="#ffa88d"></path></g></g></svg>