<svg xmlns="http://www.w3.org/2000/svg" xmlns:xlink="http://www.w3.org/1999/xlink" width="133" height="133" viewBox="0 0 133 133"><defs><clipPath id="clip-guidance"><rect width="133" height="133"></rect></clipPath></defs><g id="guidance" clip-path="url(#clip-guidance)"><g id="Group_513" data-name="Group 513" transform="translate(-340.834 -185.672)"><path id="Path_75" data-name="Path 75" d="M397.648,293.943a6.827,6.827,0,0,0,13.469,0Z" transform="translate(3.345 13.432)" fill="#5f5c60"></path><path id="Path_76" data-name="Path 76" d="M437.558,207.8c-4.882-10.988-15.287-16.8-30.089-16.8-14.659,0-24.781,5.174-30.083,15.378-7.794,15.006-2.416,36.562,4.465,46.353,6.086,8.661,8.665,15.309,9.7,19.9H421.9c.209-5.177,2.158-12.487,9.378-20.481C438.549,244.1,444.458,223.333,437.558,207.8Z" transform="translate(0.26 0.256)" fill="#ffd600"></path><path id="Path_77" data-name="Path 77" d="M439.88,207.142c-3.676-8.274-12.239-18.137-32.151-18.137-19.391,0-28.15,9.024-32.083,16.6-7.77,14.955-3.653,36.918,4.619,48.689,5.73,8.154,8.205,14.41,9.237,18.7a5.2,5.2,0,0,0-4.228,5.1v4.187a5.193,5.193,0,0,0,3.316,4.83V299.8a7.588,7.588,0,0,0,7.58,7.579h2.544a9.084,9.084,0,0,0,18.029,0h2.544a7.588,7.588,0,0,0,7.58-7.579V287.1a5.193,5.193,0,0,0,3.316-4.83v-4.187a5.2,5.2,0,0,0-5.194-5.2h-.531c.221-4.749,2.037-11.535,8.753-18.971C441.914,244.286,446.793,222.7,439.88,207.142Zm-11.954,70.945v4.187a2.942,2.942,0,0,1-2.938,2.94h-34.52a2.942,2.942,0,0,1-2.938-2.94v-4.187a2.942,2.942,0,0,1,2.938-2.94h34.52A2.942,2.942,0,0,1,427.926,278.087ZM396.17,305.119a5.329,5.329,0,0,1-5.324-5.323V287.47H424.61V299.8a5.329,5.329,0,0,1-5.324,5.323Zm11.558,7.965a6.841,6.841,0,0,1-6.735-5.709h13.469A6.841,6.841,0,0,1,407.729,313.084Zm-15.914-40.192c-1.039-4.591-3.618-11.239-9.7-19.9-6.881-9.791-12.259-31.347-4.465-46.353,5.3-10.2,15.423-15.378,30.083-15.378,14.8,0,25.208,5.808,30.089,16.8,6.9,15.533.992,36.3-6.283,44.354-7.22,7.994-9.17,15.3-9.378,20.481Z" transform="translate(0 0)" fill="#3f2840"></path><path id="Path_78" data-name="Path 78" d="M422.416,288.623V276.3H388.652v12.326a5.33,5.33,0,0,0,5.324,5.323h23.116A5.329,5.329,0,0,0,422.416,288.623Z" transform="translate(2.194 11.173)" fill="#757175"></path><path id="Rectangle_7" data-name="Rectangle 7" d="M2.605,0H37.792A2.605,2.605,0,0,1,40.4,2.605V7.461a2.605,2.605,0,0,1-2.605,2.605H2.606A2.606,2.606,0,0,1,0,7.46V2.605A2.605,2.605,0,0,1,2.605,0Z" transform="translate(387.529 275.148)" fill="#5f5c60"></path><path id="Path_79" data-name="Path 79" d="M424.61,261.684c-6.177,1.127-12.437.774-17.988-2.062-8.15-4.163-13-12.728-16.692-21.1-2.865-6.492-5.357-13.327-5.456-20.421-.12-8.726,3.385-17.088,7.474-24.8.01-.018.021-.037.03-.055A26.432,26.432,0,0,0,377.386,206.1c-7.794,15.006-2.416,36.562,4.465,46.353,6.086,8.661,8.665,15.309,9.7,19.9H421.9A27.723,27.723,0,0,1,424.61,261.684Z" transform="translate(0.26 0.543)" fill="#fcb415"></path><path id="Path_80" data-name="Path 80" d="M395.853,260.833c-.906-3.713-2.205-7.317-3.4-10.947-1.253-3.821-2.285-7.744-4.36-11.216a2.014,2.014,0,0,0-3.665,1.545c.74,3.43,2.332,6.512,3.8,9.68,1.825,3.945,3.522,7.977,5.649,11.768A1.085,1.085,0,0,0,395.853,260.833Z" transform="translate(1.647 6.232)" fill="#fff"></path><path id="Path_81" data-name="Path 81" d="M408.673,239.811c-.151.134-.294.273-.438.411-.362-.961-.716-1.924-1.092-2.88a2.39,2.39,0,0,0-4.566,0q-.458,1.125-.916,2.25c-.38-.818-.748-1.641-1.136-2.456-.854-1.785-3.427-1.129-3.946.517a37.373,37.373,0,0,0-.986,3.748,18.617,18.617,0,0,0-1.921-2.1.8.8,0,0,0-1.325.771,45.987,45.987,0,0,0,3.018,6.986,1.835,1.835,0,0,0,3.331-.435c.133-.628.262-1.251.395-1.869.244.571.478,1.145.723,1.716a2.3,2.3,0,0,0,3.959,0l.975-2.272c.082.211.163.423.246.634a2.382,2.382,0,0,0,3.913,1.033,6.948,6.948,0,0,0,2.711-4.337A1.776,1.776,0,0,0,408.673,239.811Z" transform="translate(2.663 5.972)" fill="#fff"></path><path id="Path_82" data-name="Path 82" d="M417.778,238.322a.912.912,0,0,0-1.683-.456c-2.064,2.682-2.888,6.435-3.972,9.613-1.139,3.338-2.654,6.681-2.745,10.245a1.952,1.952,0,0,0,3.613.978c1.8-3.058,2.28-6.714,3.077-10.135C416.831,245.3,418.114,241.689,417.778,238.322Z" transform="translate(4.847 6.2)" fill="#fff"></path><path id="Path_83" data-name="Path 83" d="M420.054,198.105c-5.255-2.249-11.629-3.43-16.944-.838-2.152,1.05-1.439,4.255.636,4.861,4.074,1.19,8.072,1.5,11.9,3.522s6.286,6.695,10.689,7.427a3.547,3.547,0,0,0,4.379-3.336C431.421,203.909,424.617,200.058,420.054,198.105Z" transform="translate(3.877 0.869)" fill="#fff241"></path><path id="Path_84" data-name="Path 84" d="M432.682,222.244c-.175-1.863-1.36-6.079-4.1-5.072-1.994.732-2.395,2.856-2.786,4.742-.464,2.23-1.134,4.276-.434,6.543a3.084,3.084,0,0,0,5.082,1.342C432.684,227.946,432.935,224.954,432.682,222.244Z" transform="translate(6.854 3.586)" fill="#fff241"></path></g></g></svg>