<svg xmlns="http://www.w3.org/2000/svg" xmlns:xlink="http://www.w3.org/1999/xlink" width="133" height="133" viewBox="0 0 133 133"><defs><clipPath id="clip-writing"><rect width="133" height="133"></rect></clipPath></defs><g id="writing" clip-path="url(#clip-writing)"><g id="Group_514" data-name="Group 514" transform="translate(5.644 13.921)"><g id="Group_11" data-name="Group 11" transform="translate(35.465 0.562)"><g id="Group_10" data-name="Group 10"><g id="Group_9" data-name="Group 9"><path id="Path_10" data-name="Path 10" d="M222.278,329.469a.248.248,0,0,0-.022-.049L210.87,307.755a.613.613,0,0,0-1.191.225l-3.205,24.359c0,.011,0,.017,0,.028,0,.05-.007.1,0,.154a.278.278,0,0,1,.007.067c0,.024.006.051.011.076l12.306,69.216.7,3.928a1.378,1.378,0,0,0,.049.177,1.473,1.473,0,0,0,.015.187l.7,3.927,1.509,8.506a5.659,5.659,0,0,0,1.722,3.233,3.439,3.439,0,0,0,2.928.931l8.31-1.539c2.088-.386,3.395-2.881,2.92-5.561l-1.515-8.508-.7-3.924a.813.813,0,0,0-.05-.182.919.919,0,0,0-.014-.182l-.7-3.928-12.31-69.209v-.011a.531.531,0,0,0-.019-.067.741.741,0,0,0-.022-.086C222.309,329.536,222.294,329.5,222.278,329.469Zm-11.56-19.1,3.13,5.954a3.382,3.382,0,0,1-3.944.226Zm-1.028,7.823a4.425,4.425,0,0,0,4.917-.428l6,11.426-7.014,1.3,0,0-5.659,1.046Zm-1.777,15.053,5.334-.985,12.011,67.564-5.329.988ZM236.356,415.9c.312,1.769-.552,3.415-1.926,3.67l-8.313,1.535a2.267,2.267,0,0,1-1.933-.609,3.761,3.761,0,0,1-1.132-2.134l-1.368-7.682,13.305-2.458Zm-2.422-13.624-13.308,2.459-.4-2.27,6.653-1.232L233.53,400Zm-.7-3.927-6.65,1.23-.035.006-12.015-67.562,6.689-1.238Z" transform="translate(-206.465 -307.345)" fill="#272525" stroke="#272525" stroke-miterlimit="10" stroke-width="0.375"></path></g><path id="Path_11" data-name="Path 11" d="M236.666,421.13l.405,2.275-13.309,2.459-.4-2.271,6.654-1.232Z" transform="translate(-209.602 -328.47)" fill="#d6eced"></path><path id="Path_12" data-name="Path 12" d="M214.633,317.017a3.382,3.382,0,0,1-3.944.226l.814-6.18Z" transform="translate(-207.25 -308.035)" fill="#272525"></path><path id="Path_13" data-name="Path 13" d="M220.947,331.569l-7.014,1.3,0,0-5.659,1.046,1.755-13.344a4.425,4.425,0,0,0,4.917-.428Z" transform="translate(-206.801 -309.721)" fill="#f4d7c9"></path><path id="Path_14" data-name="Path 14" d="M213.578,337.944l12.011,67.564-5.328.988-12.016-67.567Z" transform="translate(-206.796 -313.026)" fill="#526fc1"></path><path id="Path_15" data-name="Path 15" d="M223.062,336.134,235.073,403.7l-6.65,1.23-.035.006-12.014-67.562Z" transform="translate(-208.305 -312.69)" fill="#899cdb"></path><path id="Path_16" data-name="Path 16" d="M237.6,426.4l-13.3,2.462.4,2.271,13.305-2.457Z" transform="translate(-209.777 -329.449)" fill="#d6eced"></path><path id="Path_17" data-name="Path 17" d="M237.9,442.576l-4.52.833-3.792.7a2.275,2.275,0,0,1-1.935-.609,3.773,3.773,0,0,1-1.13-2.136l-1.366-7.68,5.441-1.006,7.863-1.45,1.367,7.676C240.141,440.671,239.275,442.318,237.9,442.576Z" transform="translate(-209.936 -330.345)" fill="#efacac"></path></g><path id="Path_18" data-name="Path 18" d="M233.446,443.77l-3.792.7a2.275,2.275,0,0,1-1.935-.609,3.766,3.766,0,0,1-1.13-2.136l-1.366-7.68,5.441-1.006c.9,3.318-1.657,7.411,2.616,10.609C233.335,443.69,233.39,443.732,233.446,443.77Z" transform="translate(-209.948 -330.681)" fill="#f48c8c"></path></g><g id="Group_12" data-name="Group 12" transform="translate(58.907 -11.644)"><path id="Path_19" data-name="Path 19" d="M257.137,334.761a6.369,6.369,0,0,0,2.325-4.39,4.506,4.506,0,0,0-1.01-3.073c7.861-11.53,2.595-27.222-.108-33.556l-.586-1.386-8.795,13.227c-1.89,2.852-4.248,6.4-4.423,10.388-.151,3.235.993,7.573,3.379,10a6.572,6.572,0,0,0-2.432,7.057,10.7,10.7,0,0,0-2.566,3.432c-1.34,2.822-1.587,6.038-1.818,8.871-.206,2.682-.518,6.046-.9,9.8s-.808,7.91-1.258,12.182c-2.937,27.977-4.863,47.986-2.9,50.581,1.53,2.027,3.029,2.743,4.289,2.878a4.421,4.421,0,0,0,1.564-.11c4.174-1.071,7.322-8.1,7.832-11.566l8.939-60.4c.5-3.384,1.069-7.22-.006-10.831A10.991,10.991,0,0,0,257.137,334.761Zm-10.979-18.714c.16-3.544,2.284-6.746,4.163-9.567l7.11-10.7c2.643,6.728,6.519,20.319-.192,30.412a8.409,8.409,0,0,0-7.819-1.043C247.232,323.251,246.024,319.054,246.158,316.047Zm3.476,10.762a6.763,6.763,0,0,1,7.043.96,3.022,3.022,0,0,1,1.16,2.517,4.782,4.782,0,0,1-1.734,3.22,7.71,7.71,0,0,0-5.765-2.529,7.3,7.3,0,0,0-3.436,1.036A5.106,5.106,0,0,1,249.635,326.809Zm7.437,21.658-8.947,60.4c-.458,3.128-3.327,9.387-6.627,10.226-1.4.356-2.794-.374-4.153-2.169-1.732-2.277,1.248-30.658,3.222-49.436.893-8.554,1.744-16.63,2.16-22.025.061-.8.123-1.6.209-2.411a18.189,18.189,0,0,1,1.457-5.888c1.277-2.689,3.625-4.479,5.994-4.559,3.221-.1,5.867,2.875,6.719,5.735C258.086,341.6,257.547,345.251,257.071,348.467Z" transform="translate(-235.251 -292.356)" fill="#272525"></path><path id="Path_20" data-name="Path 20" d="M257.43,357.642l-8.947,60.4c-.458,3.128-3.327,9.387-6.627,10.226a2.927,2.927,0,0,1-2.37-.442,6.719,6.719,0,0,1-1.783-1.727c-1.732-2.277,1.248-30.658,3.222-49.436.893-8.554,1.744-16.63,2.16-22.025.061-.8.123-1.6.209-2.411a18.188,18.188,0,0,1,1.457-5.888c1.277-2.689,3.625-4.479,5.994-4.56a4.607,4.607,0,0,1,1.052.088c2.735.473,4.91,3.108,5.667,5.647C258.444,350.775,257.905,354.426,257.43,357.642Z" transform="translate(-235.61 -301.53)" fill="#eaca6e"></path><path id="Path_21" data-name="Path 21" d="M260.481,338.007a4.782,4.782,0,0,1-1.734,3.22,8.077,8.077,0,0,0-4.434-2.444,6.707,6.707,0,0,0-1.331-.086,7.3,7.3,0,0,0-3.436,1.036,5.107,5.107,0,0,1,2.731-5.2,5.832,5.832,0,0,1,2.734-.589,7.164,7.164,0,0,1,4.309,1.549A3.022,3.022,0,0,1,260.481,338.007Z" transform="translate(-237.894 -300.076)" fill="#b8bdbc"></path><path id="Path_22" data-name="Path 22" d="M259.723,326.977a8.828,8.828,0,0,0-4.643-1.568,7.384,7.384,0,0,0-3.176.525c-2.189-1.9-3.4-6.1-3.262-9.106.16-3.544,2.284-6.746,4.163-9.567l6.205-9.34.9-1.357C262.559,303.293,266.434,316.884,259.723,326.977Z" transform="translate(-237.736 -293.137)" fill="#ef9348"></path><path id="Path_23" data-name="Path 23" d="M261.194,326.977a8.828,8.828,0,0,0-4.643-1.568c2.454-8.075,8.844-16.117,3.93-27.487l.9-1.357C264.029,303.293,267.9,316.884,261.194,326.977Z" transform="translate(-239.206 -293.137)" fill="#d3752f"></path><path id="Path_24" data-name="Path 24" d="M259.847,341.227a8.077,8.077,0,0,0-4.434-2.444c.23-1.617.468-3.225.7-4.842a7.164,7.164,0,0,1,4.31,1.549,3.022,3.022,0,0,1,1.16,2.517A4.782,4.782,0,0,1,259.847,341.227Z" transform="translate(-238.994 -300.077)" fill="#868a89"></path><path id="Path_25" data-name="Path 25" d="M257.988,347.529c.981,3.266.442,6.917-.033,10.133l-8.947,60.4c-.458,3.128-3.327,9.387-6.627,10.226a2.927,2.927,0,0,1-2.37-.442c.007-.065.023-.137.029-.2q6.133-42.884,12.281-85.758C255.056,342.355,257.232,344.99,257.988,347.529Z" transform="translate(-236.135 -301.551)" fill="#e8b33d"></path></g></g></g></svg>